<mxfile host="app.diagrams.net" modified="2023-09-23T02:11:32.183Z" agent="Mozilla/5.0 (X11; Linux x86_64) AppleWebKit/537.36 (KHTML, like Gecko) Chrome/116.0.0.0 Safari/537.36" etag="dUqfJnNzSZZyWJgneL4v" version="21.8.1" type="device">
  <diagram name="Page-1" id="PnNoFYbSDL9hc8cRV_6Q">
    <mxGraphModel dx="1687" dy="939" grid="1" gridSize="10" guides="1" tooltips="1" connect="1" arrows="1" fold="1" page="1" pageScale="1" pageWidth="850" pageHeight="1100" math="0" shadow="0">
      <root>
        <mxCell id="0" />
        <mxCell id="1" parent="0" />
        <mxCell id="VP71xFdP1yJGSNqs7y8k-104" style="edgeStyle=orthogonalEdgeStyle;rounded=0;orthogonalLoop=1;jettySize=auto;html=1;exitX=1;exitY=0.5;exitDx=0;exitDy=0;shadow=0;" edge="1" parent="1" source="J7lGs6AmeGsDlZnmxU85-1">
          <mxGeometry relative="1" as="geometry">
            <mxPoint x="390" y="290.41176470588243" as="targetPoint" />
          </mxGeometry>
        </mxCell>
        <mxCell id="J7lGs6AmeGsDlZnmxU85-1" value="VOTING" style="rounded=1;whiteSpace=wrap;html=1;fillColor=#f5f5f5;fontColor=#333333;strokeColor=#666666;fontStyle=1;shadow=0;" parent="1" vertex="1">
          <mxGeometry x="240" y="260" width="120" height="60" as="geometry" />
        </mxCell>
        <mxCell id="J7lGs6AmeGsDlZnmxU85-3" value="AUDITING" style="rounded=1;whiteSpace=wrap;html=1;fillColor=#f5f5f5;fontColor=#333333;strokeColor=#666666;fontStyle=1;shadow=0;" parent="1" vertex="1">
          <mxGeometry x="400" y="260" width="440" height="60" as="geometry" />
        </mxCell>
        <mxCell id="VP71xFdP1yJGSNqs7y8k-37" style="edgeStyle=orthogonalEdgeStyle;rounded=0;orthogonalLoop=1;jettySize=auto;html=1;exitX=0.5;exitY=1;exitDx=0;exitDy=0;fillColor=#f5f5f5;strokeColor=#666666;shadow=0;" edge="1" parent="1" source="J7lGs6AmeGsDlZnmxU85-7" target="J7lGs6AmeGsDlZnmxU85-10">
          <mxGeometry relative="1" as="geometry" />
        </mxCell>
        <mxCell id="J7lGs6AmeGsDlZnmxU85-7" value="DRAFT" style="rounded=1;whiteSpace=wrap;html=1;fontStyle=1;fillColor=#f5f5f5;strokeColor=#666666;fontColor=#333333;shadow=0;" parent="1" vertex="1">
          <mxGeometry x="400" y="760" width="120" height="40" as="geometry" />
        </mxCell>
        <mxCell id="VP71xFdP1yJGSNqs7y8k-108" style="edgeStyle=orthogonalEdgeStyle;rounded=0;orthogonalLoop=1;jettySize=auto;html=1;exitX=0;exitY=0.5;exitDx=0;exitDy=0;entryX=1;entryY=0.5;entryDx=0;entryDy=0;shadow=0;" edge="1" parent="1" source="J7lGs6AmeGsDlZnmxU85-8" target="J7lGs6AmeGsDlZnmxU85-7">
          <mxGeometry relative="1" as="geometry" />
        </mxCell>
        <mxCell id="J7lGs6AmeGsDlZnmxU85-8" value="REVIEWS" style="rounded=1;whiteSpace=wrap;html=1;fontStyle=1;fillColor=#f5f5f5;strokeColor=#666666;fontColor=#333333;shadow=0;" parent="1" vertex="1">
          <mxGeometry x="640" y="760" width="120" height="40" as="geometry" />
        </mxCell>
        <mxCell id="J7lGs6AmeGsDlZnmxU85-10" value="FINAL REPORT" style="rounded=1;whiteSpace=wrap;html=1;fontStyle=1;fillColor=#f5f5f5;strokeColor=#666666;fontColor=#333333;shadow=0;" parent="1" vertex="1">
          <mxGeometry x="400" y="840" width="120" height="40" as="geometry" />
        </mxCell>
        <mxCell id="VP71xFdP1yJGSNqs7y8k-39" style="edgeStyle=orthogonalEdgeStyle;rounded=0;orthogonalLoop=1;jettySize=auto;html=1;exitX=0.5;exitY=1;exitDx=0;exitDy=0;entryX=0.5;entryY=0;entryDx=0;entryDy=0;endArrow=none;endFill=0;shadow=0;" edge="1" parent="1" target="VP71xFdP1yJGSNqs7y8k-22">
          <mxGeometry relative="1" as="geometry">
            <mxPoint x="620" y="639.9999999999998" as="sourcePoint" />
          </mxGeometry>
        </mxCell>
        <mxCell id="VP71xFdP1yJGSNqs7y8k-40" style="edgeStyle=orthogonalEdgeStyle;rounded=0;orthogonalLoop=1;jettySize=auto;html=1;exitX=0.5;exitY=1;exitDx=0;exitDy=0;entryX=0.5;entryY=0;entryDx=0;entryDy=0;endArrow=none;endFill=0;shadow=0;" edge="1" parent="1" target="VP71xFdP1yJGSNqs7y8k-20">
          <mxGeometry relative="1" as="geometry">
            <mxPoint x="620" y="639.9999999999998" as="sourcePoint" />
          </mxGeometry>
        </mxCell>
        <mxCell id="VP71xFdP1yJGSNqs7y8k-41" style="edgeStyle=orthogonalEdgeStyle;rounded=0;orthogonalLoop=1;jettySize=auto;html=1;exitX=0.5;exitY=1;exitDx=0;exitDy=0;entryX=0.5;entryY=0;entryDx=0;entryDy=0;endArrow=none;endFill=0;shadow=0;" edge="1" parent="1" target="VP71xFdP1yJGSNqs7y8k-23">
          <mxGeometry relative="1" as="geometry">
            <mxPoint x="620" y="639.9999999999998" as="sourcePoint" />
          </mxGeometry>
        </mxCell>
        <mxCell id="VP71xFdP1yJGSNqs7y8k-95" style="edgeStyle=orthogonalEdgeStyle;rounded=0;orthogonalLoop=1;jettySize=auto;html=1;exitX=0.5;exitY=1;exitDx=0;exitDy=0;endArrow=none;endFill=0;shadow=0;" edge="1" parent="1" source="VP71xFdP1yJGSNqs7y8k-118">
          <mxGeometry relative="1" as="geometry">
            <mxPoint x="620.0588235294117" y="639.9999999999998" as="targetPoint" />
          </mxGeometry>
        </mxCell>
        <mxCell id="B8pVvOsND0FsndY5BWwT-1" value="GROUPING&lt;br&gt;ASSIGNATION" style="rounded=1;whiteSpace=wrap;html=1;fontStyle=1;fillColor=#f5f5f5;fontColor=#333333;strokeColor=#666666;strokeWidth=1;shadow=0;" parent="1" vertex="1">
          <mxGeometry x="560" y="380" width="120" height="80" as="geometry" />
        </mxCell>
        <mxCell id="VP71xFdP1yJGSNqs7y8k-115" style="edgeStyle=orthogonalEdgeStyle;rounded=0;orthogonalLoop=1;jettySize=auto;html=1;exitX=1;exitY=0.5;exitDx=0;exitDy=0;entryX=0;entryY=0.5;entryDx=0;entryDy=0;" edge="1" parent="1" source="B8pVvOsND0FsndY5BWwT-6" target="B8pVvOsND0FsndY5BWwT-1">
          <mxGeometry relative="1" as="geometry" />
        </mxCell>
        <mxCell id="B8pVvOsND0FsndY5BWwT-6" value="&lt;b&gt;AUDITOR&lt;br&gt;POOL&lt;/b&gt;" style="ellipse;whiteSpace=wrap;html=1;aspect=fixed;strokeWidth=1;fillColor=#f5f5f5;fontColor=#333333;strokeColor=#666666;shadow=0;" parent="1" vertex="1">
          <mxGeometry x="400" y="360" width="120" height="120" as="geometry" />
        </mxCell>
        <mxCell id="VP71xFdP1yJGSNqs7y8k-3" value="&lt;font&gt;Tx 1&lt;/font&gt;&lt;br&gt;&lt;br&gt;DAPP 1&amp;nbsp;&lt;br&gt;&lt;br&gt;&amp;nbsp;Fundamental&lt;br&gt;&amp;nbsp;Analysis" style="rounded=1;whiteSpace=wrap;html=1;fontStyle=1;dashed=1;dashPattern=1 1;strokeWidth=2;strokeColor=#666666;fillColor=#f5f5f5;fontColor=#333333;shadow=0;" vertex="1" parent="1">
          <mxGeometry x="240" y="360" width="120" height="120" as="geometry" />
        </mxCell>
        <mxCell id="VP71xFdP1yJGSNqs7y8k-12" value="&lt;font&gt;Tx 2&lt;br&gt;&lt;/font&gt;&lt;br&gt;DAPP 2&lt;br&gt;&lt;br&gt;Formal &lt;br&gt;Verification" style="rounded=1;whiteSpace=wrap;html=1;fontStyle=1;glass=0;shadow=0;dashed=1;dashPattern=1 1;strokeWidth=2;strokeColor=#666666;fillColor=#f5f5f5;fontColor=#333333;" vertex="1" parent="1">
          <mxGeometry x="240" y="520" width="120" height="120" as="geometry" />
        </mxCell>
        <mxCell id="VP71xFdP1yJGSNqs7y8k-18" value="&lt;font&gt;Tx 3&lt;/font&gt;&lt;br&gt;&lt;br&gt;DAPP 1&amp;nbsp;&lt;br&gt;&lt;br&gt;&amp;nbsp;Fundamental&lt;br&gt;&amp;nbsp;Analysis" style="rounded=1;whiteSpace=wrap;html=1;fontStyle=1;dashed=1;dashPattern=1 1;strokeWidth=2;strokeColor=#666666;fillColor=#f5f5f5;fontColor=#333333;shadow=0;" vertex="1" parent="1">
          <mxGeometry x="240" y="680" width="120" height="120" as="geometry" />
        </mxCell>
        <mxCell id="VP71xFdP1yJGSNqs7y8k-24" style="edgeStyle=orthogonalEdgeStyle;rounded=0;orthogonalLoop=1;jettySize=auto;html=1;exitX=0.5;exitY=1;exitDx=0;exitDy=0;fillColor=#f5f5f5;strokeColor=#666666;shadow=0;" edge="1" parent="1" source="VP71xFdP1yJGSNqs7y8k-20" target="J7lGs6AmeGsDlZnmxU85-7">
          <mxGeometry relative="1" as="geometry" />
        </mxCell>
        <mxCell id="VP71xFdP1yJGSNqs7y8k-20" value="AUDITOR" style="rounded=1;whiteSpace=wrap;html=1;fontStyle=1;shadow=0;strokeWidth=1;" vertex="1" parent="1">
          <mxGeometry x="400" y="680" width="120" height="40" as="geometry" />
        </mxCell>
        <mxCell id="VP71xFdP1yJGSNqs7y8k-85" style="edgeStyle=orthogonalEdgeStyle;rounded=0;orthogonalLoop=1;jettySize=auto;html=1;exitX=0.5;exitY=1;exitDx=0;exitDy=0;entryX=0.5;entryY=0;entryDx=0;entryDy=0;fillColor=#f5f5f5;strokeColor=#000000;shadow=0;" edge="1" parent="1" source="VP71xFdP1yJGSNqs7y8k-22" target="J7lGs6AmeGsDlZnmxU85-8">
          <mxGeometry relative="1" as="geometry" />
        </mxCell>
        <mxCell id="VP71xFdP1yJGSNqs7y8k-22" value="REVIEWER" style="rounded=1;whiteSpace=wrap;html=1;fontStyle=1;shadow=0;strokeWidth=1;" vertex="1" parent="1">
          <mxGeometry x="560" y="680" width="120" height="40" as="geometry" />
        </mxCell>
        <mxCell id="VP71xFdP1yJGSNqs7y8k-110" style="edgeStyle=orthogonalEdgeStyle;rounded=0;orthogonalLoop=1;jettySize=auto;html=1;exitX=0.5;exitY=1;exitDx=0;exitDy=0;entryX=0.5;entryY=0;entryDx=0;entryDy=0;shadow=0;" edge="1" parent="1" source="VP71xFdP1yJGSNqs7y8k-23" target="J7lGs6AmeGsDlZnmxU85-8">
          <mxGeometry relative="1" as="geometry" />
        </mxCell>
        <mxCell id="VP71xFdP1yJGSNqs7y8k-23" value="REVIEWER" style="rounded=1;whiteSpace=wrap;html=1;fontStyle=1;shadow=0;glass=0;strokeWidth=1;" vertex="1" parent="1">
          <mxGeometry x="720" y="680" width="120" height="40" as="geometry" />
        </mxCell>
        <mxCell id="VP71xFdP1yJGSNqs7y8k-96" value="&lt;font&gt;Tx 4&lt;/font&gt;&lt;br&gt;&lt;br&gt;DAPP 1&amp;nbsp;&lt;br&gt;&lt;br&gt;&amp;nbsp;Fundamental&lt;br&gt;&amp;nbsp;Analysis" style="rounded=1;whiteSpace=wrap;html=1;fontStyle=1;dashed=1;dashPattern=1 1;strokeWidth=2;strokeColor=#666666;fillColor=#f5f5f5;fontColor=#333333;shadow=0;" vertex="1" parent="1">
          <mxGeometry x="240" y="840" width="120" height="120" as="geometry" />
        </mxCell>
        <mxCell id="VP71xFdP1yJGSNqs7y8k-98" value="Report of Fundamental&lt;br&gt;Analysis" style="rounded=1;whiteSpace=wrap;html=1;fontStyle=1;strokeWidth=1;strokeColor=#666666;fillColor=#f5f5f5;fontColor=#333333;shadow=0;" vertex="1" parent="1">
          <mxGeometry x="400" y="890" width="120" height="70" as="geometry" />
        </mxCell>
        <mxCell id="VP71xFdP1yJGSNqs7y8k-102" style="edgeStyle=orthogonalEdgeStyle;rounded=0;orthogonalLoop=1;jettySize=auto;html=1;exitX=1;exitY=0.5;exitDx=0;exitDy=0;shadow=0;" edge="1" parent="1" source="VP71xFdP1yJGSNqs7y8k-101">
          <mxGeometry relative="1" as="geometry">
            <mxPoint x="230" y="290.41176470588243" as="targetPoint" />
          </mxGeometry>
        </mxCell>
        <mxCell id="VP71xFdP1yJGSNqs7y8k-101" value="WAITING" style="rounded=1;whiteSpace=wrap;html=1;fillColor=#f5f5f5;fontColor=#333333;strokeColor=#666666;fontStyle=1;shadow=0;" vertex="1" parent="1">
          <mxGeometry x="80" y="260" width="120" height="60" as="geometry" />
        </mxCell>
        <mxCell id="VP71xFdP1yJGSNqs7y8k-117" value="DAPP 1" style="rounded=1;whiteSpace=wrap;html=1;fontStyle=1;fillColor=#f5f5f5;fontColor=#333333;strokeColor=#666666;strokeWidth=1;shadow=0;" vertex="1" parent="1">
          <mxGeometry x="720" y="520" width="120" height="40" as="geometry" />
        </mxCell>
        <mxCell id="VP71xFdP1yJGSNqs7y8k-119" value="" style="edgeStyle=orthogonalEdgeStyle;rounded=0;orthogonalLoop=1;jettySize=auto;html=1;exitX=0.5;exitY=1;exitDx=0;exitDy=0;endArrow=none;endFill=0;shadow=0;" edge="1" parent="1" source="B8pVvOsND0FsndY5BWwT-1" target="VP71xFdP1yJGSNqs7y8k-118">
          <mxGeometry relative="1" as="geometry">
            <mxPoint x="620.0588235294117" y="639.9999999999998" as="targetPoint" />
            <mxPoint x="620" y="460" as="sourcePoint" />
          </mxGeometry>
        </mxCell>
        <mxCell id="VP71xFdP1yJGSNqs7y8k-124" style="edgeStyle=orthogonalEdgeStyle;rounded=0;orthogonalLoop=1;jettySize=auto;html=1;exitX=1;exitY=0.5;exitDx=0;exitDy=0;entryX=0;entryY=0.5;entryDx=0;entryDy=0;" edge="1" parent="1" source="VP71xFdP1yJGSNqs7y8k-118" target="VP71xFdP1yJGSNqs7y8k-117">
          <mxGeometry relative="1" as="geometry" />
        </mxCell>
        <mxCell id="VP71xFdP1yJGSNqs7y8k-118" value="GROUP 1" style="rounded=1;whiteSpace=wrap;html=1;fontStyle=1;fillColor=#f5f5f5;fontColor=#333333;strokeColor=#666666;strokeWidth=1;shadow=0;" vertex="1" parent="1">
          <mxGeometry x="560" y="520" width="120" height="40" as="geometry" />
        </mxCell>
      </root>
    </mxGraphModel>
  </diagram>
</mxfile>
